<svg width="205" height="39" fill="none" xmlns="http://www.w3.org/2000/svg"><g filter="url(#a)"><path d="M37.78 13.613C37.78 7.199 32.58 2 26.167 2c-6.414 0-11.613 5.2-11.613 11.613 0 6.413 5.199 11.613 11.613 11.613 6.413 0 11.613-5.2 11.613-11.613Z" fill="url(#b)"/><path d="M37.538 13.613c0-6.28-5.091-11.371-11.371-11.371s-11.371 5.09-11.371 11.37c0 6.28 5.09 11.372 11.37 11.372 6.28 0 11.372-5.091 11.372-11.371Z" stroke="#fff" stroke-opacity=".3" stroke-width=".5" stroke-miterlimit="10"/><path d="M7.78 32a6.774 6.774 0 0 1-.968-13.48v-.068a6.774 6.774 0 0 1 12.704-3.277 6.78 6.78 0 0 1 9.09 3.713A6.775 6.775 0 1 1 31.006 32H7.78Z" fill="#FFA97D" fill-opacity=".7"/><path d="M31.005 31.516a6.297 6.297 0 0 0 6.29-6.29 6.297 6.297 0 0 0-8.517-5.885l-.447.17-.175-.447a6.283 6.283 0 0 0-2.274-2.878 6.253 6.253 0 0 0-3.586-1.121c-.9 0-1.768.185-2.58.551l-.407.183-.216-.39a6.298 6.298 0 0 0-5.507-3.248 6.297 6.297 0 0 0-6.29 6.287v.065l.007.426-.422.06a6.286 6.286 0 0 0-3.839 2.088 6.285 6.285 0 0 0-1.553 4.139 6.297 6.297 0 0 0 6.29 6.29h23.226Zm0 .484H7.78a6.774 6.774 0 0 1-.967-13.48l-.001-.068a6.774 6.774 0 0 1 12.704-3.277 6.776 6.776 0 0 1 9.09 3.713A6.774 6.774 0 1 1 31.006 32Z" fill="#fff" fill-opacity=".3"/><path d="m47.824 25-4.32-17.52h4.056l3.264 14.328h.624l2.52-13.68H58l2.904 13.68h.624L64.36 7.48h3.84L64.36 25h-6.096L55.96 14.44 53.8 25h-5.976Zm28.054.456c-1.12 0-2.112-.192-2.976-.576a6.36 6.36 0 0 1-2.136-1.536 6.754 6.754 0 0 1-1.296-2.184 7.449 7.449 0 0 1-.432-2.496v-.48c0-.864.144-1.704.432-2.52a6.433 6.433 0 0 1 1.296-2.184 6.203 6.203 0 0 1 2.088-1.512c.832-.384 1.792-.576 2.88-.576 1.408 0 2.592.32 3.552.96a6.152 6.152 0 0 1 2.232 2.472 7.303 7.303 0 0 1 .768 3.312v1.296h-9.624c.128.896.448 1.608.96 2.136.528.512 1.28.768 2.256.768.688 0 1.256-.128 1.704-.384.464-.272.776-.616.936-1.032h3.528c-.288 1.344-.984 2.44-2.088 3.288-1.088.832-2.448 1.248-4.08 1.248Zm-.144-10.944c-.832 0-1.512.24-2.04.72-.512.464-.84 1.136-.984 2.016h5.904c-.128-.88-.44-1.552-.936-2.016-.48-.48-1.128-.72-1.944-.72Zm12.84 10.824c-1.424 0-2.576-.368-3.456-1.104-.864-.736-1.296-1.776-1.296-3.12 0-.96.248-1.744.744-2.352.496-.624 1.192-1.08 2.088-1.368.896-.304 1.928-.456 3.096-.456h2.376v-.048c0-1.344-.672-2.016-2.016-2.016-.352 0-.816.016-1.392.048a76.86 76.86 0 0 0-1.8.072c-.608.016-1.152.04-1.632.072v-3.24c.56-.048 1.248-.088 2.064-.12a38.628 38.628 0 0 1 2.256-.072c2.016 0 3.552.432 4.608 1.296 1.072.848 1.608 2.184 1.608 4.008V25h-3.048v-2.472c-.288.912-.784 1.608-1.488 2.088s-1.608.72-2.712.72Zm1.152-2.664c.624 0 1.168-.176 1.632-.528.464-.352.72-1.024.768-2.016v-1.056h-2.4c-.672 0-1.192.168-1.56.504-.352.336-.528.776-.528 1.32 0 .528.176.96.528 1.296.368.32.888.48 1.56.48Zm15.33 2.496c-1.328 0-2.4-.16-3.216-.48-.816-.336-1.416-.888-1.8-1.656-.368-.784-.552-1.84-.552-3.168v-5.208h-1.992v-2.808h1.992V8.296h3.576v3.552h3.84v2.808h-3.84v5.352c0 .624.16 1.104.48 1.44.336.32.808.48 1.416.48h1.944v3.24h-1.848Zm4.43-.168V7.48h3.84v6.528c.704-1.712 2-2.568 3.888-2.568h.168c1.456 0 2.568.52 3.336 1.56.768 1.024 1.152 2.528 1.152 4.512V25h-3.84v-7.728c0-.72-.216-1.296-.648-1.728-.416-.448-.968-.672-1.656-.672-.72 0-1.304.24-1.752.72-.432.464-.648 1.072-.648 1.824V25h-3.84Zm21.681.456c-1.12 0-2.112-.192-2.976-.576a6.36 6.36 0 0 1-2.136-1.536 6.754 6.754 0 0 1-1.296-2.184 7.449 7.449 0 0 1-.432-2.496v-.48c0-.864.144-1.704.432-2.52a6.433 6.433 0 0 1 1.296-2.184 6.203 6.203 0 0 1 2.088-1.512c.832-.384 1.792-.576 2.88-.576 1.408 0 2.592.32 3.552.96a6.152 6.152 0 0 1 2.232 2.472 7.303 7.303 0 0 1 .768 3.312v1.296h-9.624c.128.896.448 1.608.96 2.136.528.512 1.28.768 2.256.768.688 0 1.256-.128 1.704-.384.464-.272.776-.616.936-1.032h3.528c-.288 1.344-.984 2.44-2.088 3.288-1.088.832-2.448 1.248-4.08 1.248Zm-.144-10.944c-.832 0-1.512.24-2.04.72-.512.464-.84 1.136-.984 2.016h5.904c-.128-.88-.44-1.552-.936-2.016-.48-.48-1.128-.72-1.944-.72ZM140.119 25V11.848h3.048v4.464c.144-1.488.6-2.632 1.368-3.432.784-.8 1.848-1.2 3.192-1.2h.504v3.312h-.96c-1.072 0-1.896.288-2.472.864-.56.576-.84 1.392-.84 2.448V25h-3.84Zm9.238 0 6.6-17.52h2.592L165.365 25h-1.344l-2.28-5.904h-8.88L150.653 25h-1.296Zm3.96-7.08h7.944l-3.576-9.264h-.912l-3.456 9.264ZM168.73 29.8V12.4h1.008v3.264c.4-1.12 1.064-2.008 1.992-2.664.944-.656 2.056-.984 3.336-.984 1.28 0 2.368.312 3.264.936a5.909 5.909 0 0 1 2.088 2.424c.48 1.008.72 2.08.72 3.216v.24c0 .816-.136 1.616-.408 2.4a6.577 6.577 0 0 1-1.2 2.112 5.875 5.875 0 0 1-1.896 1.512c-.752.368-1.608.552-2.568.552-1.168 0-2.192-.272-3.072-.816a5.553 5.553 0 0 1-1.992-2.256V29.8h-1.272Zm6.168-5.544c1.056 0 1.952-.256 2.688-.768a5.023 5.023 0 0 0 1.704-2.04c.384-.848.576-1.76.576-2.736 0-1.024-.2-1.952-.6-2.784-.4-.848-.968-1.52-1.704-2.016s-1.624-.744-2.664-.744c-.96 0-1.816.216-2.568.648-.736.416-1.32 1-1.752 1.752-.432.736-.648 1.584-.648 2.544v1.224c0 .912.208 1.744.624 2.496a5.034 5.034 0 0 0 1.752 1.776c.752.432 1.616.648 2.592.648Zm10.121 5.544V12.4h1.008v3.264c.4-1.12 1.064-2.008 1.992-2.664.944-.656 2.056-.984 3.336-.984 1.28 0 2.368.312 3.264.936a5.909 5.909 0 0 1 2.088 2.424c.48 1.008.72 2.08.72 3.216v.24c0 .816-.136 1.616-.408 2.4a6.577 6.577 0 0 1-1.2 2.112 5.875 5.875 0 0 1-1.896 1.512c-.752.368-1.608.552-2.568.552-1.168 0-2.192-.272-3.072-.816a5.553 5.553 0 0 1-1.992-2.256V29.8h-1.272Zm6.168-5.544c1.056 0 1.952-.256 2.688-.768a5.023 5.023 0 0 0 1.704-2.04c.384-.848.576-1.76.576-2.736 0-1.024-.2-1.952-.6-2.784-.4-.848-.968-1.52-1.704-2.016s-1.624-.744-2.664-.744c-.96 0-1.816.216-2.568.648-.736.416-1.32 1-1.752 1.752-.432.736-.648 1.584-.648 2.544v1.224c0 .912.208 1.744.624 2.496a5.034 5.034 0 0 0 1.752 1.776c.752.432 1.616.648 2.592.648Z" fill="#fff"/></g><defs><linearGradient id="b" x1="26.167" y1="2" x2="26.167" y2="25.226" gradientUnits="userSpaceOnUse"><stop stop-color="#F80"/><stop offset="1" stop-color="#DB2903"/></linearGradient><filter id="a" x="0" y=".992" width="204.427" height="38.008" filterUnits="userSpaceOnUse" color-interpolation-filters="sRGB"><feFlood flood-opacity="0" result="BackgroundImageFix"/><feColorMatrix in="SourceAlpha" values="0 0 0 0 0 0 0 0 0 0 0 0 0 0 0 0 0 0 127 0" result="hardAlpha"/><feOffset dx="3" dy="3"/><feGaussianBlur stdDeviation="2"/><feComposite in2="hardAlpha" operator="out"/><feColorMatrix values="0 0 0 0 1 0 0 0 0 1 0 0 0 0 0.996078 0 0 0 0.1 0"/><feBlend in2="BackgroundImageFix" result="effect1_dropShadow_3_27"/><feBlend in="SourceGraphic" in2="effect1_dropShadow_3_27" result="shape"/></filter></defs></svg>